<!-- Generated by IcoMoon.io -->
<svg version="1.1" xmlns="http://www.w3.org/2000/svg" width="32" height="32" viewBox="0 0 32 32">
<title>ng</title>
<path fill="#fff" d="M16 1.12c-1.798 0-3.472 0.31-5.084 0.868v27.962c1.612 0.558 3.286 0.868 5.084 0.868s3.472-0.31 5.084-0.868v-27.962c-1.612-0.558-3.286-0.868-5.084-0.868z"></path>
<path fill="#008751" d="M1.12 16c0 6.448 4.092 11.904 9.796 14.012v-28.024c-5.704 2.108-9.796 7.564-9.796 14.012z"></path>
<path fill="#008751" d="M30.88 16c0-6.448-4.092-11.904-9.796-14.012v27.962c5.704-2.046 9.796-7.502 9.796-13.95z"></path>
<path fill="#cccccb" d="M31.5 16c0-8.556-6.944-15.5-15.5-15.5s-15.5 6.944-15.5 15.5 6.944 15.5 15.5 15.5 15.5-6.944 15.5-15.5zM16 30.88c-1.798 0-3.472-0.31-5.084-0.868-5.704-2.108-9.796-7.564-9.796-14.012s4.092-11.904 9.796-14.012c1.612-0.558 3.286-0.868 5.084-0.868s3.472 0.31 5.084 0.868c5.704 2.108 9.796 7.564 9.796 14.012s-4.092 11.904-9.796 14.012c-1.612 0.558-3.286 0.868-5.084 0.868z"></path>
</svg>
